:SAMPLES-PER-SECOND 30
:FULLY-SPECIFIED
:DEGREES
145
root  -49.7829 40.8356 -36.9005 175.856 5.21314 -179.055
RightUpLeg  -6.56324 -7.90589 0.833812
RightLeg  10.3771 -7.84826 3.85927
RightFoot  1.60165 0.984275 -8.55658
RightToes  2.32829e-010 0 -3.6325e-017
Spine  11.8996 0.832839 11.2587
Spine1  1.02965 2.86422 -5.40964
HEad  -15.2194 1.03345 -2.58918
LeftShoulder1  4.94977 -7.6457 -38.1947
LeftArm  -11.2222 22.4674 -16.7011
LeftForeArm  28.7644 -35.6684 -6.33774
LeftHand  -0.244104 0.0205437 5.32207
RightShoulder  5.33261 9.25796 35.8066
RightArm  -6.82358 -16.7725 28.3329
RightForeArm  3.98622 40.4277 9.29509
RightHand  -0.839895 2.39096 -12.7002
LeftUpLeg  -9.31956 7.3249 2.92601
LeftLeg  11.9034 5.06983 0.315198
LeftFoot  0.669908 0.0382547 -0.313383
LeftToes  -1.53708e-010 -3.96652e-011 -3.29181e-011
146
root  -49.6925 40.9179 -37.3477 175.999 3.98722 -179.06
RightUpLeg  -5.82501 -7.93618 0.6859
RightLeg  10.2437 -8.98926 3.67185
RightFoot  1.15005 0.92937 -8.39635
RightToes  2.32829e-010 0 -3.6325e-017
Spine  11.5076 0.603269 8.91934
Spine1  0.75729 1.9238 -3.02342
HEad  -15.4083 1.90138 -2.69411
LeftShoulder1  4.28001 -6.76643 -35.5586
LeftArm  -13.4513 21.4744 -14.1507
LeftForeArm  25.5486 -30.1788 -5.15315
LeftHand  -0.244104 0.0205437 5.32207
RightShoulder  4.86252 8.7142 33.8495
RightArm  -8.58119 -15.5944 24.8095
RightForeArm  1.02311 36.7656 8.32382
RightHand  -1.00677 3.13536 -13.9012
LeftUpLeg  -8.85489 6.94688 2.81638
LeftLeg  11.9946 4.37103 0.261882
LeftFoot  1.16912 -0.0318078 0.222485
LeftToes  -1.53708e-010 -3.96652e-011 -3.29181e-011
147
root  -49.5931 40.9956 -37.7545 176.138 2.5562 -179.24
RightUpLeg  -5.212 -7.94475 0.381835
RightLeg  10.2624 -10.2805 3.44302
RightFoot  0.48209 0.84481 -8.10538
RightToes  2.32829e-010 0 -3.6325e-017
Spine  11.2781 0.426075 6.58477
Spine1  0.238274 1.14004 -0.959384
HEad  -15.196 2.17345 -2.44977
LeftShoulder1  3.78081 -6.25167 -32.6724
LeftArm  -15.4959 20.5662 -11.0093
LeftForeArm  22.7385 -24.9725 -4.1503
LeftHand  -0.244104 0.0205437 5.32207
RightShoulder  4.28036 7.89671 31.5973
RightArm  -10.6025 -15.1382 20.5211
RightForeArm  -2.57133 32.8736 7.42586
RightHand  -1.04922 3.30228 -14.1958
LeftUpLeg  -8.08371 6.7226 2.74582
LeftLeg  11.4858 3.59357 -0.00978537
LeftFoot  0.0847414 0.0542931 -0.54261
LeftToes  -1.53708e-010 -3.96652e-011 -3.29181e-011
148
root  -49.5353 41.0953 -38.1764 176.272 2.06455 -179.528
RightUpLeg  -4.29491 -7.65758 0.0803921
RightLeg  9.5975 -10.9582 3.36886
RightFoot  0.0364718 0.779081 -7.7999
RightToes  2.32829e-010 0 -3.6325e-017
Spine  10.6136 0.526647 5.41739
Spine1  0.0866365 1.09099 -0.749213
HEad  -14.1693 1.90323 -1.90123
LeftShoulder1  3.26921 -5.73017 -29.2745
LeftArm  -16.2974 19.4512 -7.49148
LeftForeArm  20.3652 -20.4296 -3.41442
LeftHand  -0.244104 0.0205437 5.32207
RightShoulder  3.59779 6.85159 28.7438
RightArm  -12.0202 -15.1023 16.1424
RightForeArm  -5.33398 28.5774 6.45461
RightHand  -1.06887 3.59157 -14.0098
LeftUpLeg  -6.6502 5.79774 2.83471
LeftLeg  9.47002 3.93416 -0.748046
LeftFoot  0.333639 0.0806439 -0.812196
LeftToes  -1.53708e-010 -3.96652e-011 -3.29181e-011
149
root  -49.5373 41.2059 -38.608 176.426 2.213 -179.873
RightUpLeg  -3.24297 -7.33498 -0.297514
RightLeg  8.52595 -11.0979 3.44809
RightFoot  -0.0523534 0.752869 -7.60313
RightToes  2.32829e-010 0 -3.6325e-017
Spine  9.59077 0.662165 4.96421
Spine1  0.205277 1.29546 -1.47706
HEad  -12.8911 1.69708 -1.60758
LeftShoulder1  2.61803 -4.70964 -25.6174
LeftArm  -16.3858 18.2323 -4.20664
LeftForeArm  17.3817 -17.121 -3.03814
LeftHand  -0.244104 0.0205437 5.32207
RightShoulder  2.85921 5.6528 25.0994
RightArm  -12.6038 -14.495 12.1857
RightForeArm  -6.61395 23.5145 5.47159
RightHand  -1.12597 4.17637 -13.8733
LeftUpLeg  -5.09537 4.85286 2.8383
LeftLeg  7.40743 4.93914 -1.52706
LeftFoot  1.17094 0.0556897 -0.571133
LeftToes  -1.53708e-010 -3.96652e-011 -3.29181e-011
150
root  -49.57 41.2928 -39.0073 176.678 2.04848 179.835
RightUpLeg  -2.48228 -7.17838 -0.709855
RightLeg  7.75713 -11.341 3.50663
RightFoot  -0.194082 0.727908 -7.45484
RightToes  2.32829e-010 0 -3.6325e-017
Spine  8.64927 0.502132 4.51528
Spine1  0.183523 1.13754 -1.86437
HEad  -12.0432 1.83084 -1.73844
LeftShoulder1  1.91615 -3.22951 -22.0106
LeftArm  -17.2782 17.4391 -1.64574
LeftForeArm  14.7461 -15.7568 -2.77766
LeftHand  -0.244104 0.0205437 5.32207
RightShoulder  2.16939 4.4014 21.1091
RightArm  -14.156 -13.1181 8.70754
RightForeArm  -6.44278 17.9582 5.11536
RightHand  -1.15899 4.44947 -13.8905
LeftUpLeg  -3.94675 4.28813 2.68154
LeftLeg  6.00787 5.53287 -2.02509
LeftFoot  1.14953 0.0674245 -0.681497
LeftToes  -1.53708e-010 -3.96652e-011 -3.29181e-011
151
root  -49.6012 41.3477 -39.3479 177.054 1.54861 179.669
RightUpLeg  -2.08294 -7.08173 -0.980801
RightLeg  7.33632 -11.8203 3.48122
RightFoot  -0.540539 0.680494 -7.22066
RightToes  2.32829e-010 0 -3.6325e-017
Spine  8.06755 0.17266 4.25014
Spine1  -0.179113 0.826845 -2.25024
HEad  -11.6553 1.88891 -1.77757
LeftShoulder1  1.31946 -1.7507 -18.4088
LeftArm  -19.6811 17.175 0.0525568
LeftForeArm  14.2571 -16.2467 -2.48634
LeftHand  -0.244104 0.0205437 5.32207
RightShoulder  1.59358 3.1359 17.4058
RightArm  -16.9784 -11.8523 5.64519
RightForeArm  -6.36637 13.0948 5.10378
RightHand  -1.14411 4.15241 -14.1269
LeftUpLeg  -3.26027 3.825 2.49586
LeftLeg  4.87353 5.56006 -2.3058
LeftFoot  0.808748 0.0950741 -0.938681
LeftToes  -1.53708e-010 -3.96652e-011 -3.29181e-011
152
root  -49.6259 41.3879 -39.6338 177.413 1.32699 179.569
RightUpLeg  -1.78158 -6.94425 -1.11333
RightLeg  6.94049 -12.117 3.44085
RightFoot  -0.821789 0.635655 -6.95123
RightToes  2.32829e-010 0 -3.6325e-017
Spine  7.85284 0.0165942 4.45122
Spine1  -0.705329 0.827376 -3.21848
HEad  -11.5351 1.62078 -1.47391
LeftShoulder1  0.876545 -0.501954 -14.8684
LeftArm  -22.6229 16.8471 1.01171
LeftForeArm  14.9642 -17.3887 -2.38878
LeftHand  -0.244104 0.0205437 5.32207
RightShoulder  1.10924 1.78847 14.0663
RightArm  -18.819 -11.1868 3.27887
RightForeArm  -8.25762 9.922 4.70875
RightHand  -1.15405 3.90144 -14.6089
LeftUpLeg  -2.76076 3.53042 2.36403
LeftLeg  3.85911 5.46395 -2.53441
LeftFoot  0.933784 0.080193 -0.799373
LeftToes  -1.53708e-010 -3.96652e-011 -3.29181e-011
153
root  -49.6468 41.422 -39.8776 177.641 1.34675 179.455
RightUpLeg  -1.41193 -6.81839 -1.25151
RightLeg  6.50813 -12.1509 3.43184
RightFoot  -0.984451 0.605464 -6.74089
RightToes  2.32829e-010 0 -3.6325e-017
Spine  7.75383 5.88551e-006 4.58465
Spine1  -0.979675 0.941228 -4.0073
HEad  -11.7321 1.47701 -1.24398
LeftShoulder1  0.555398 0.613457 -11.8916
LeftArm  -24.2447 16.0338 1.54178
LeftForeArm  14.1376 -17.809 -2.44148
LeftHand  -0.244104 0.0205437 5.32207
RightShoulder  0.69026 0.334611 10.7578
RightArm  -20.0183 -10.6578 1.88509
RightForeArm  -10.2549 8.21682 4.27966
RightHand  -1.22005 4.20933 -14.9505
LeftUpLeg  -2.26372 3.56595 2.2944
LeftLeg  3.17074 5.40477 -2.77854
LeftFoot  1.06024 0.0506992 -0.524666
LeftToes  -1.53708e-010 -3.96652e-011 -3.29181e-011
154
root  -49.6599 41.4444 -40.0903 177.826 1.05143 179.37
RightUpLeg  -1.0036 -6.74361 -1.39142
RightLeg  6.05509 -12.317 3.44792
RightFoot  -1.25248 0.563481 -6.46636
RightToes  2.32829e-010 0 -3.6325e-017
Spine  7.46841 -0.172851 4.11345
Spine1  -0.824557 0.68801 -3.71886
HEad  -12.1175 2.02675 -1.32254
LeftShoulder1  0.330273 1.60734 -9.80175
LeftArm  -23.9256 15.0229 1.87652
LeftForeArm  11.7043 -17.0922 -2.37651
LeftHand  -0.244104 0.0205437 5.32207
RightShoulder  0.3762 -1.00711 7.54462
RightArm  -20.8902 -9.86485 1.25539
RightForeArm  -11.329 7.35577 4.03952
RightHand  -1.28622 4.73824 -14.9497
LeftUpLeg  -1.89067 3.64877 2.25699
LeftLeg  2.76552 5.16398 -2.96165
LeftFoot  0.776817 0.0477422 -0.501661
LeftToes  -1.53708e-010 -3.96652e-011 -3.29181e-011
155
root  -49.666 41.4585 -40.2807 178.105 0.430714 179.386
RightUpLeg  -0.614962 -6.66837 -1.40206
RightLeg  5.43126 -12.7695 3.48114
RightFoot  -1.58518 0.506056 -6.04493
RightToes  2.32829e-010 0 -3.6325e-017
Spine  6.98023 -0.525051 3.37026
Spine1  -0.520355 0.132827 -2.83006
HEad  -12.2802 3.19497 -1.43392
LeftShoulder1  0.185735 2.35951 -8.2725
LeftArm  -22.816 14.2201 1.83893
LeftForeArm  10.0201 -15.7316 -2.1784
LeftHand  -0.244104 0.0205437 5.32207
RightShoulder  0.203229 -1.91202 5.00647
RightArm  -21.0711 -9.03338 0.741202
RightForeArm  -11.769 6.8624 4.01248
RightHand  -1.31259 5.01555 -14.8578
LeftUpLeg  -1.82463 3.5715 2.21451
LeftLeg  2.51097 4.66892 -2.98474
LeftFoot  0.520026 0.0487513 -0.532208
LeftToes  -1.53708e-010 -3.96652e-011 -3.29181e-011
156
root  -49.6738 41.4697 -40.4521 178.459 0.0391557 179.478
RightUpLeg  -0.335761 -6.50468 -1.25937
RightLeg  4.73618 -13.2355 3.49783
RightFoot  -1.74706 0.470184 -5.73502
RightToes  2.32829e-010 0 -3.6325e-017
Spine  6.51064 -0.792638 2.92342
Spine1  -0.360092 -0.274147 -2.24489
HEad  -12.28 3.63105 -1.40575
LeftShoulder1  0.0958965 2.88123 -6.94303
LeftArm  -22.1298 13.6376 1.17457
LeftForeArm  9.85067 -14.2943 -1.92062
LeftHand  -0.244104 0.0205437 5.32207
RightShoulder  0.128905 -2.37431 3.43003
RightArm  -20.6947 -8.32266 0.10462
RightForeArm  -11.3846 6.3148 4.042
RightHand  -1.30093 5.03271 -14.7066
LeftUpLeg  -2.0302 3.47038 2.19211
LeftLeg  2.54775 4.31388 -2.8974
LeftFoot  0.458972 0.0412562 -0.423517
LeftToes  -1.53708e-010 -3.96652e-011 -3.29181e-011
157
root  -49.684 41.4788 -40.6048 178.785 0.137469 179.545
RightUpLeg  -0.232644 -6.32211 -1.10021
RightLeg  4.27724 -13.3772 3.46327
RightFoot  -1.73493 0.475792 -5.79255
RightToes  2.32829e-010 0 -3.6325e-017
Spine  6.14941 -0.850985 2.70175
Spine1  -0.25335 -0.395452 -1.98655
HEad  -12.2562 3.96021 -1.50264
LeftShoulder1  0.0438699 3.2193 -6.02935
LeftArm  -21.8923 13.2302 0.212864
LeftForeArm  9.78626 -13.0368 -1.69114
LeftHand  -0.244104 0.0205437 5.32207
RightShoulder  0.0815677 -2.7353 2.47353
RightArm  -20.3989 -7.411 -0.189153
RightForeArm  -10.1274 5.3775 3.95738
RightHand  -1.28235 5.06297 -14.464
LeftUpLeg  -2.23206 3.46277 2.214
LeftLeg  2.7737 4.41681 -2.84128
LeftFoot  0.254256 0.0388656 -0.388333
LeftToes  -1.53708e-010 -3.96652e-011 -3.29181e-011
